{"title":"Don Jon 2013 HDRiP X264 AC3 MURDER","uid":9360436,"size":562696085,"categoryP":"video","categoryS":"movies","magnet":"?xt=urn:btih:1b108a98b075072d9cc6dec70b6e7d23f30f3ba5&amp;dn=Don+Jon+2013+HDRiP+X264+AC3+MURDER&amp;tr=udp%3A%2F%2Ftracker.openbittorrent.com%3A80&amp;tr=udp%3A%2F%2Fopen.demonii.com%3A1337&amp;tr=udp%3A%2F%2Ftracker.coppersurfer.tk%3A6969&amp;tr=udp%3A%2F%2Fexodus.desync.com%3A6969","seeders":0,"leechers":1,"uploader":"darkj6","files":-1,"time":1387304962,"description":" ______   _______  ______    ___   _      ___  --------|\n|      | |   _   ||    _ |  |   | | |    |   ||   |----|    \n|  _    ||  |_|  ||   | ||  |   |_| |    |   ||   |___ \n| | |   ||       ||   |_||_ |      _|    |   ||    _  |\n| |_|   ||       ||    __  ||     |_  ___|   ||   | | |\n|       ||   _   ||   |  | ||    _  ||       ||   |_| |\n|______| |__| |__||___|  |_||___| |_||_______||_______|\n\n\n[font=Georgia]General\nSource                                   : PLAYNOW.Thanks\nComplete name                            : Don Jon 2013 HDRiP X264 AC3 MURDER.mkv\nFormat                                   : Matroska\nFormat version                           : Version 2\nFile size                                : 534 MiB\nDuration                                 : 1h 30mn\nOverall bit rate                         : 828 Kbps\nEncoded date                             : UTC 2013-12-17 10:23:08\nWriting application                      : mkvmerge v6.5.0 \nWriting library                          : libebml v1.3.0 + libmatroska v1.4.1\n\nVideo\nID                                       : 1\nFormat                                   : AVC\nFormat/Info                              : Advanced Video Codec\nFormat profile                           : &lt;a class=&quot;__cf_email__&quot; href=&quot;/cdn-cgi/l/email-protection&quot; data-cfemail=&quot;3d705c54537d710f130c&quot;&gt;[email&amp;#160;protected]&lt;/a&gt;&lt;script data-cfhash='f9e31' type=&quot;text/javascript&quot;&gt;\n/* &lt;![CDATA[ */!function(){try{var t=&quot;currentScript&quot;in document?document.currentScript:function(){for(var t=document.getElementsByTagName(&quot;script&quot;),e=t.length;e--;)if(t[e].getAttribute(&quot;data-cfhash&quot;))return t[e]}();if(t&amp;&amp;t.previousSibling){var e,r,n,i,c=t.previousSibling,a=c.getAttribute(&quot;data-cfemail&quot;);if(a){for(e=&quot;&quot;,r=parseInt(a.substr(0,2),16),n=2;a.length-n;n+=2)i=parseInt(a.substr(n,2),16)^r,e+=String.fromCharCode(i);e=document.createTextNode(e),c.parentNode.replaceChild(e,c)}t.parentNode.removeChild(t);}}catch(u){}}()/* ]]&gt; */&lt;/script&gt;\nFormat settings, CABAC                   : Yes\nFormat settings, ReFrames                : 4 frames\nCodec ID                                 : V_MPEG4/ISO/AVC\nDuration                                 : 1h 30mn\nBit rate                                 : 512 Kbps\nWidth                                    : 640 pixels\nHeight                                   : 264 pixels\nDisplay aspect ratio                     : 2.40:1\nFrame rate mode                          : Constant\nFrame rate                               : 16.000 fps\nColor space                              : YUV\nChroma subsampling                       : 4:2:0\nBit depth                                : 8 bits\nScan type                                : Progressive\nBits/(Pixel*Frame)                       : 0.189\nStream size                              : 317 MiB (59%)\nWriting library                          : x264 core \nDefault                                  : Yes\nForced                                   : No\n\nAudio\nID                                       : 2\nFormat                                   : AC-3\nFormat/Info                              : Audio Coding 3\nMode extension                           : CM (complete main)\nFormat settings, Endianness              : Big\nCodec ID                                 : A_AC3\nDuration                                 : 1h 30mn\nBit rate mode                            : Constant\nBit rate                                 : 320 Kbps\nChannel(s)                               : 6 channels\nChannel positions                        : Front: L C R, Side: L R, LFE\nSampling rate                            : 48.0 KHz\nBit depth                                : 16 bits\nCompression mode                         : Lossy\nStream size                              : 206 MiB (39%)\nLanguage                                 : English\nDefault                                  : Yes\nForced                                   : No\n\n[/font]\n\nA New Jersey guy dedicated to his family, friends, and church, develops unrealistic expectations from watching porn and works to find happiness and intimacy with his potential true love.\n &lt;a href=&quot;\nhttp://s20.postimg.org/ce71fckn1/vlcsnap_2013_11_15_17h17m08s200.png&quot; rel=&quot;nofollow&quot; target=&quot;_NEW&quot;&gt;\nhttp://s20.postimg.org/ce71fckn1/vlcsnap_2013_11_15_17h17m08s200.png&lt;/a&gt;\n &lt;a href=&quot;\nhttp://s20.postimg.org/eexl06gsd/vlcsnap_2013_11_15_17h17m18s43.png&quot; rel=&quot;nofollow&quot; target=&quot;_NEW&quot;&gt;\nhttp://s20.postimg.org/eexl06gsd/vlcsnap_2013_11_15_17h17m18s43.png&lt;/a&gt;\n &lt;a href=&quot;\nhttp://s20.postimg.org/4t40jvpml/vlcsnap_2013_11_15_17h17m13s247.png&quot; rel=&quot;nofollow&quot; target=&quot;_NEW&quot;&gt;\nhttp://s20.postimg.org/4t40jvpml/vlcsnap_2013_11_15_17h17m13s247.png&lt;/a&gt;\n &lt;a href=&quot;\nhttp://s20.postimg.org/90yssmr25/vlcsnap_2013_11_15_17h17m04s159.png&quot; rel=&quot;nofollow&quot; target=&quot;_NEW&quot;&gt;\nhttp://s20.postimg.org/90yssmr25/vlcsnap_2013_11_15_17h17m04s159.png&lt;/a&gt;\n &lt;a href=&quot;\nhttp://s20.postimg.org/um3vg8nst/vlcsnap_2013_11_15_17h16m40s172.png&quot; rel=&quot;nofollow&quot; target=&quot;_NEW&quot;&gt;\nhttp://s20.postimg.org/um3vg8nst/vlcsnap_2013_11_15_17h16m40s172.png&lt;/a&gt;\n\n\n\n________________$$$$\n______________$$____$$\n______________$$____$$\n______________$$____$$\n______________$$____$$\n______________$$____$$\n__________$$$$$$____$$$$$$\n________$$____$$____$$____$$$$\n________$$____$$____$$____$$__$$\n$$$$$$__$$____$$____$$____$$____$$\n$$____$$$$________________$$____$$\n$$______$$______________________$$\n__$$____$$______________________$$\n___$$$__$$______________________$$\n____$$__________________________$$\n_____$$$________________________$$\n______$$______________________$$$\n_______$$$____________________$$\n________$$____________________$$\n_________$$$________________$$$\n__________$$________________$$\n__________$$$$$$$$$$$$$$$$$$$$\t","torrent":{"xt":"urn:btih:1b108a98b075072d9cc6dec70b6e7d23f30f3ba5","amp;dn":"Don+Jon+2013+HDRiP+X264+AC3+MURDER","amp;tr":["udp%3A%2F%2Ftracker.openbittorrent.com%3A80","udp%3A%2F%2Fopen.demonii.com%3A1337","udp%3A%2F%2Ftracker.coppersurfer.tk%3A6969","udp%3A%2F%2Fexodus.desync.com%3A6969"],"infoHash":"1b108a98b075072d9cc6dec70b6e7d23f30f3ba5","infoHashBuffer":{"type":"Buffer","data":[27,16,138,152,176,117,7,45,156,198,222,199,11,110,125,35,243,15,59,165]},"announce":[],"urlList":[]}}